# xmcd CD database file
#
# Track frame offsets:
#	150
#	19875
#	39791
#	59517
#
# Disc length: 1056 seconds
#
# Revision: 1
# Processed by: cddbd v1.5.2PL0 Copyright (c) Steve Scherf et al.
# Submitted via: CDex 1.70beta2
#
DISCID=2a041e04
DTITLE=defspiral  - DIVE INTO THE MIRROR 
DYEAR=2010
DGENRE=Visual_Rock
TTITLE0=DIVE INTO THE MIRROR 
TTITLE1=INNOCENT
TTITLE2=DIVE INTO THE MIRROR (Instrumental)
TTITLE3=INNOCENT (Instrumental) 
EXTD=YEAR: 2010
EXTT0=
EXTT1=
EXTT2=
EXTT3=
PLAYORDER=
